<svg xmlns="http://www.w3.org/2000/svg" viewBox="0 0 24 24" width="24" height="24"><title>notification</title><g class="nc-icon-wrapper" fill="#ee5d5d"><path data-color="color-2" d="M20,9a2.99,2.99,0,0,0-2.658-2.966A12.554,12.554,0,0,0,17,9a12.554,12.554,0,0,0,.342,2.966A2.99,2.99,0,0,0,20,9Z"/> <path data-color="color-2" d="M11.667,17.911,5.879,16.066l2.632,6.475A2.329,2.329,0,0,0,12.832,20.8Z"/> <path d="M19,0a3.134,3.134,0,0,0-1.054.185L2.73,5.037A3.818,3.818,0,0,0,0,9a3.809,3.809,0,0,0,2.7,3.953l15.25,4.862A3.134,3.134,0,0,0,19,18c2.851,0,5-3.869,5-9S21.851,0,19,0Zm0,16c-1.416,0-3-2.994-3-7s1.584-7,3-7,3,2.994,3,7S20.416,16,19,16Z" fill="#212b35"/></g></svg>