<svg xmlns="http://www.w3.org/2000/svg" viewBox="0 0 24 24" width="24" height="24"><title>soundwave</title><g class="nc-icon-wrapper" fill="#ee5d5d"><path d="M10,21a1,1,0,0,1-1-1V2a1,1,0,0,1,2,0V20A1,1,0,0,1,10,21Z" fill="#212b35"/><path d="M6,17a1,1,0,0,1-1-1V8A1,1,0,0,1,7,8v8A1,1,0,0,1,6,17Z" data-color="color-2"/><path d="M2,14a1,1,0,0,1-1-1V11a1,1,0,0,1,2,0v2A1,1,0,0,1,2,14Z" fill="#212b35"/><path d="M14,23a1,1,0,0,1-1-1V4a1,1,0,0,1,2,0V22A1,1,0,0,1,14,23Z" data-color="color-2"/><path d="M18,17a1,1,0,0,1-1-1V8a1,1,0,0,1,2,0v8A1,1,0,0,1,18,17Z" fill="#212b35"/><path d="M22,14a1,1,0,0,1-1-1V11a1,1,0,0,1,2,0v2A1,1,0,0,1,22,14Z" data-color="color-2"/></g></svg>