<svg xmlns="http://www.w3.org/2000/svg" width="64" height="64" viewBox="0 0 64 64"><g class="nc-icon-wrapper" fill="#ee5d5d"><path d="M43.44,2.1a1,1,0,0,0-1.051.1L20.658,19H8a6.006,6.006,0,0,0-6,6V39a6.006,6.006,0,0,0,6,6H20.658L42.389,61.792A1,1,0,0,0,43,62a1,1,0,0,0,1-1V3A1,1,0,0,0,43.44,2.1Z" fill="#212b35"/><path data-color="color-2" d="M62,33H52a1,1,0,0,1,0-2H62a1,1,0,0,1,0,2Z"/><path data-color="color-2" d="M49.341,21a1,1,0,0,1-.5-1.866l8.66-5a1,1,0,0,1,1,1.732l-8.66,5A.992.992,0,0,1,49.341,21Z"/><path data-color="color-2" d="M58,50a.992.992,0,0,1-.5-.134l-8.66-5a1,1,0,0,1,1-1.732l8.66,5A1,1,0,0,1,58,50Z"/></g></svg>