<svg xmlns="http://www.w3.org/2000/svg" width="64" height="64" viewBox="0 0 64 64"><g class="nc-icon-wrapper" fill="#ee5d5d"><path d="M48.032,22.706a1,1,0,0,0,0,1.414,11.157,11.157,0,0,1,0,15.76,1,1,0,1,0,1.414,1.414,13.158,13.158,0,0,0,0-18.588A1,1,0,0,0,48.032,22.706Z" fill="#212b35"/><path d="M54.9,15.837a1,1,0,0,0,0,1.414,20.881,20.881,0,0,1,0,29.5,1,1,0,1,0,1.414,1.414,22.884,22.884,0,0,0,0-32.326A1,1,0,0,0,54.9,15.837Z" fill="#212b35"/><path d="M8.011,45h6.747L44.011,15.747V3A1,1,0,0,0,42.4,2.208L20.669,19H8.011a6.006,6.006,0,0,0-6,6V39A6.006,6.006,0,0,0,8.011,45Z" fill="#212b35"/><path d="M22.121,46.122,42.4,61.792a1,1,0,0,0,.611.208,1,1,0,0,0,1-1V24.231Z" fill="#212b35"/><path data-color="color-2" d="M5,60a1,1,0,0,1-.707-1.707l54-54a1,1,0,1,1,1.414,1.414l-54,54A1,1,0,0,1,5,60Z"/></g></svg>