<?xml version="1.0" encoding="UTF-8"?>
<svg width="46px" height="43px" viewBox="0 0 46 43" version="1.1" xmlns="http://www.w3.org/2000/svg" xmlns:xlink="http://www.w3.org/1999/xlink">
    <!-- Generator: Sketch 62 (91390) - https://sketch.com -->
    <title>PWA</title>
    <desc>Created with Sketch.</desc>
    <g id="Page-1" stroke="none" stroke-width="1" fill="none" fill-rule="evenodd">
        <g id="PWA" fill-rule="nonzero">
            <g id="window-code">
                <path d="M44,42.0161663 L2,42.0161663 C0.895,42.0161663 0,41.1208218 0,40.0153965 L0,2.00076982 C0,0.895344496 0.895,0 2,0 L44,0 C45.105,0 46,0.895344496 46,2.00076982 L46,40.0153965 C46,41.1208218 45.105,42.0161663 44,42.0161663 Z" id="Path" fill="#444444"></path>
                <rect id="Rectangle" fill="#FFFFFF" x="1.96535797" y="7.01154734" width="42.0161663" height="33.039261"></rect>
                <circle id="Oval" fill="#E86C60" cx="3.50577367" cy="3.50577367" r="1.48729792"></circle>
                <circle id="Oval" fill="#EFD358" cx="8.49884527" cy="3.50577367" r="1.48729792"></circle>
                <circle id="Oval" fill="#72C472" cx="13.4919169" cy="3.50577367" r="1.48729792"></circle>
            </g>
            <g id="pwa" transform="translate(6.214781, 17.103926)">
                <polygon id="Path" fill="#3D3D3D" points="24.9122402 10.4650081 25.8886312 7.99146078 28.707854 7.99146078 27.3699266 4.23922275 29.0432449 0 33.8360277 12.7482679 30.3015236 12.7482679 29.4825256 10.4650081"></polygon>
                <polygon id="Path" fill="#7247C0" points="21.8994253 12.7482679 27.0369515 0 23.6309478 1.69397328e-05 20.116583 8.23823339 17.6175177 3.38792921e-05 14.999498 3.38792921e-05 12.3161669 8.23823339 10.4238194 4.48424831 8.7113164 9.7627174 10.4500167 12.7482679 13.801944 12.7482679 16.2267516 5.36036781 18.5386731 12.7482679"></polygon>
                <path d="M3.23150675,8.37200192 L5.32840932,8.37200192 C5.96359908,8.37200192 6.52921153,8.30103872 7.02524666,8.15911234 L7.56753381,6.48680249 L9.08314088,1.81294557 C8.96765813,1.62972662 8.83581649,1.45649386 8.68761594,1.29326984 C7.90944176,0.431080044 6.77090388,0 5.27196765,0 L0,0 L0,12.7482679 L3.23150675,12.7482679 L3.23150675,8.37200192 Z M6.00707841,2.93286653 C6.31103509,3.23907853 6.46299611,3.64884717 6.46299611,4.16220716 C6.46299611,4.67950473 6.32933488,5.08977641 6.06202975,5.39302221 C5.76899055,5.72997162 5.22940678,5.89843765 4.44331309,5.89843765 L3.23150675,5.89843765 L3.23150675,2.47352253 L4.45222038,2.47352253 C5.18485304,2.47352253 5.70313905,2.6266372 6.00707841,2.93286653 Z" id="Shape" fill="#3D3D3D"></path>
            </g>
        </g>
    </g>
</svg>