<?xml version="1.0" encoding="UTF-8"?>
<svg width="46px" height="44px" viewBox="0 0 46 44" version="1.1" xmlns="http://www.w3.org/2000/svg" xmlns:xlink="http://www.w3.org/1999/xlink">
    <!-- Generator: Sketch 62 (91390) - https://sketch.com -->
    <title>web-design</title>
    <desc>Created with Sketch.</desc>
    <g id="Page-1" stroke="none" stroke-width="1" fill="none" fill-rule="evenodd">
        <g id="web-design" fill-rule="nonzero">
            <path d="M44,44 L2,44 C0.895,44 0,43.105 0,42 L0,6 C0,4.895 0.895,4 2,4 L44,4 C45.105,4 46,4.895 46,6 L46,42 C46,43.105 45.105,44 44,44 Z" id="Path" fill="#444444"></path>
            <rect id="Rectangle" fill="#FFFFFF" x="2" y="11" width="42" height="31"></rect>
            <circle id="Oval" fill="#E86C60" cx="3.5" cy="7.5" r="1.5"></circle>
            <circle id="Oval" fill="#EFD358" cx="8.5" cy="7.5" r="1.5"></circle>
            <circle id="Oval" fill="#72C472" cx="13.5" cy="7.5" r="1.5"></circle>
            <path d="M37.172,0.828 C36.067,-0.277 34.277,-0.277 33.172,0.828 L20.536,13.464 C21.524,13.645 22.435,14.114 23.161,14.84 C23.887,15.566 24.355,16.476 24.536,17.464 L37.172,4.828 C38.276,3.724 38.276,1.933 37.172,0.828 Z" id="Path" fill="#A67C52"></path>
            <path d="M20.536,13.464 L15,19 L19,23 L24.536,17.464 C24.355,16.476 23.886,15.565 23.161,14.84 C22.435,14.115 21.524,13.646 20.536,13.464 Z" id="Path" fill="#E6E6E6"></path>
            <path d="M40,39 L6,39 C5.448,39 5,38.552 5,38 L5,31 C5,30.448 5.448,30 6,30 L40,30 C40.552,30 41,30.448 41,31 L41,38 C41,38.552 40.552,39 40,39 Z" id="Path" fill="#FF6E88"></path>
            <path d="M19.863,25.192 C20.753,24.258 21.25,23.046 21.25,21.751 C21.25,20.415 20.73,19.16 19.786,18.216 C18.842,17.272 17.586,16.751 16.25,16.751 C14.914,16.751 13.659,17.272 12.714,18.216 C11.658,19.272 11.247,21.479 11.091,23.305 C12.687,23.72 13.78,24.032 14.937,24.345 C16.368,24.73 17.844,25.132 19.863,25.192 Z" id="Path" fill="#444444"></path>
            <path d="M11.008,26.02 L11.033,26.968 L11.98,26.993 C12.109,26.996 12.304,27 12.552,27 C14.219,27 18.239,26.832 19.785,25.285 C19.814,25.256 19.834,25.221 19.862,25.191 C16.302,24.217 14.801,23.03 11.091,23.303 C10.985,24.549 10.997,25.618 11.008,26.02 Z" id="Path" fill="#FF6E88"></path>
        </g>
    </g>
</svg>