<svg xmlns="http://www.w3.org/2000/svg" viewBox="0 0 48 48" width="48" height="48"><title>reading</title><g class="nc-icon-wrapper"><path d="M45.762,36.436,38.3,20.584A4.517,4.517,0,0,0,34.23,18H13.77A4.517,4.517,0,0,0,9.7,20.584L2.238,36.436a2.5,2.5,0,0,0,2.785,3.508L12,38.449V47H36V38.449l6.977,1.5a2.5,2.5,0,0,0,2.785-3.508ZM8.911,34,12,27.435v5.9ZM36,33.336v-5.9L39.089,34Z" fill="#212b35"/><polygon points="33 41.091 24 43 15 41 15 25 24 27 33 25 33 41.091" fill="#dc97ba"/><path d="M24,16h0a7.5,7.5,0,0,1-7.5-7.5h0A7.5,7.5,0,0,1,24,1h0a7.5,7.5,0,0,1,7.5,7.5h0A7.5,7.5,0,0,1,24,16Z" fill="#000000"/><path d="M17.977,32.056l-3.539.756v5.126l4.585-.994a2.5,2.5,0,1,0-1.046-4.888Z" fill="#212b35"/><path d="M33.458,32.792l-3.435-.736a2.5,2.5,0,1,0-1.046,4.888l4.481.994Z" fill="#212b35"/></g></svg>