<svg width="626" height="221" viewBox="0 0 626 221" fill="none" xmlns="http://www.w3.org/2000/svg">
<path d="M476.413 75.3358L485.619 67.973C478.468 67.184 475.529 71.0842 474.327 74.1713C468.74 71.8513 462.657 74.8918 462.657 74.8918L481.076 81.5785C480.147 79.0966 478.53 76.9311 476.413 75.3358Z" fill="#3F3D56"/>
<path d="M14.4135 112.336L23.6191 104.973C16.4677 104.184 13.5292 108.084 12.3267 111.171C6.73966 108.851 0.657471 111.892 0.657471 111.892L19.0764 118.579C18.1472 116.097 16.5296 113.931 14.4135 112.336Z" fill="#3F3D56"/>
<path d="M616.413 150.336L625.619 142.973C618.468 142.184 615.529 146.084 614.327 149.171C608.74 146.851 602.657 149.892 602.657 149.892L621.076 156.579C620.147 154.097 618.53 151.931 616.413 150.336Z" fill="#3F3D56"/>
<path d="M90.4134 92.3358L99.6191 84.973C92.4676 84.184 89.5292 88.0842 88.3266 91.1713C82.7396 88.8513 76.6575 91.8918 76.6575 91.8918L95.0763 98.5785C94.1471 96.0966 92.5296 93.9311 90.4134 92.3358Z" fill="#3F3D56"/>
<path d="M107.413 172.336L116.619 164.973C109.468 164.184 106.529 168.084 105.327 171.171C99.7396 168.851 93.6575 171.892 93.6575 171.892L112.076 178.579C111.147 176.097 109.53 173.931 107.413 172.336Z" fill="#3F3D56"/>
<path d="M465.413 214.336L474.619 206.973C467.468 206.184 464.529 210.084 463.327 213.171C457.74 210.851 451.657 213.892 451.657 213.892L470.076 220.579C469.147 218.097 467.53 215.931 465.413 214.336Z" fill="#3F3D56"/>
<path d="M321.756 7.4659L330.962 0.103112C323.81 -0.685888 320.872 3.21438 319.669 6.30148C314.082 3.98148 308 7.02193 308 7.02193L326.419 13.7086C325.49 11.2267 323.872 9.0612 321.756 7.4659V7.4659Z" fill="#3F3D56"/>
<path d="M369.756 108.466L378.962 101.103C371.81 100.314 368.872 104.214 367.669 107.301C362.082 104.981 356 108.022 356 108.022L374.419 114.709C373.49 112.227 371.872 110.061 369.756 108.466Z" fill="#3F3D56"/>
</svg>
