<svg width="889" height="479" viewBox="0 0 889 479" fill="none" xmlns="http://www.w3.org/2000/svg">
<g clip-path="url(#clip0)">
<path d="M192 477H190C190 452.07 180.097 428.16 162.468 410.532C144.84 392.904 120.93 383 96.0001 383C71.0697 383 47.1604 392.904 29.532 410.532C11.9036 428.16 2.00006 452.07 2.00006 477H6.10352e-05C6.14146e-05 451.539 10.1143 427.121 28.1178 409.118C46.1213 391.114 70.5393 381 96.0001 381C121.461 381 145.879 391.114 163.882 409.118C181.886 427.121 192 451.539 192 477V477Z" fill="#3F3D56"/>
<path d="M888 477H886C886 452.07 876.096 428.16 858.468 410.532C840.84 392.904 816.93 383 792 383C767.07 383 743.16 392.904 725.532 410.532C707.904 428.16 698 452.07 698 477H696C696 451.539 706.114 427.121 724.118 409.118C742.121 391.114 766.539 381 792 381C817.461 381 841.879 391.114 859.882 409.118C877.886 427.121 888 451.539 888 477V477Z" fill="#3F3D56"/>
<path d="M653 248H651C651 153.159 573.841 76 479 76C384.159 76 307 153.159 307 248H305C305 152.056 383.056 74 479 74C574.944 74 653 152.056 653 248Z" fill="#3F3D56"/>
<path d="M145.5 79C167.315 79 185 61.3152 185 39.5C185 17.6848 167.315 0 145.5 0C123.685 0 106 17.6848 106 39.5C106 61.3152 123.685 79 145.5 79Z" fill="#F29189"/>
<path d="M153.891 311.384L221.752 230.567H355.171L436.705 309.983L435.058 311.042H435.646V476.227H153.984V311.042L153.891 311.384Z" fill="#3F3D56"/>
<path d="M194.719 276.249H210.102V223H194.719V276.249Z" fill="#3F3D56"/>
<path d="M220.694 229.508L304.345 327.581V476.227H153.984V308.924L220.694 229.508Z" fill="#E34534"/>
<path d="M285.014 347.044H254.306V378.442H285.014V347.044Z" fill="#3F3D56"/>
<path d="M285.014 389.767H254.306V421.165H285.014V389.767Z" fill="#3F3D56"/>
<path d="M285.014 347.044H254.306V378.442H285.014V347.044Z" fill="white"/>
<path d="M285.014 389.767H254.306V421.165H285.014V389.767Z" fill="white"/>
<path d="M242.545 347.044H211.838V378.442H242.545V347.044Z" fill="#3F3D56"/>
<path d="M242.545 389.767H211.838V421.165H242.545V389.767Z" fill="#3F3D56"/>
<path d="M242.545 347.044H211.838V378.442H242.545V347.044Z" fill="white"/>
<path d="M242.545 389.767H211.838V421.165H242.545V389.767Z" fill="white"/>
<path d="M200.077 347.044H169.369V378.442H200.077V347.044Z" fill="#3F3D56"/>
<path d="M200.077 389.767H169.369V421.165H200.077V389.767Z" fill="#3F3D56"/>
<path d="M200.077 347.044H169.369V378.442H200.077V347.044Z" fill="white"/>
<path d="M200.077 389.767H169.369V421.165H200.077V389.767Z" fill="white"/>
<path d="M499 40H485V75H499V40Z" fill="#E34534"/>
<path d="M498 72H379V477H498V72Z" fill="#0476DF"/>
<path d="M546 72H498V477H546V72Z" fill="#3F3D56"/>
<path d="M418.5 107H400.5V125H418.5V107Z" fill="white"/>
<path d="M447.5 107H429.5V125H447.5V107Z" fill="white"/>
<path d="M476.5 107H458.5V125H476.5V107Z" fill="white"/>
<path d="M419 148H401V166H419V148Z" fill="white"/>
<path d="M448 148H430V166H448V148Z" fill="white"/>
<path d="M477 148H459V166H477V148Z" fill="white"/>
<path d="M419.5 189H401.5V207H419.5V189Z" fill="white"/>
<path d="M448.5 189H430.5V207H448.5V189Z" fill="white"/>
<path d="M477.5 189H459.5V207H477.5V189Z" fill="white"/>
<path d="M420 230H402V248H420V230Z" fill="white"/>
<path d="M449 230H431V248H449V230Z" fill="white"/>
<path d="M478 230H460V248H478V230Z" fill="white"/>
<path d="M420.5 271H402.5V289H420.5V271Z" fill="white"/>
<path d="M449.5 271H431.5V289H449.5V271Z" fill="white"/>
<path d="M478.5 271H460.5V289H478.5V271Z" fill="white"/>
<path d="M421 312H403V330H421V312Z" fill="white"/>
<path d="M450 312H432V330H450V312Z" fill="white"/>
<path d="M479 312H461V330H479V312Z" fill="white"/>
<path d="M421.5 353H403.5V371H421.5V353Z" fill="white"/>
<path d="M450.5 353H432.5V371H450.5V353Z" fill="white"/>
<path d="M479.5 353H461.5V371H479.5V353Z" fill="white"/>
<path d="M422 394H404V412H422V394Z" fill="white"/>
<path d="M451 394H433V412H451V394Z" fill="white"/>
<path d="M451 442H433V476H451V442Z" fill="white"/>
<path d="M480 394H462V412H480V394Z" fill="white"/>
<path d="M506 40H498V74H506V40Z" fill="#3F3D56"/>
<path d="M649 218H635V238.744H649V218Z" fill="#E34534"/>
<path d="M648 236.966H529V477H648V236.966Z" fill="#E34534"/>
<path d="M696 236.966H648V477H696V236.966Z" fill="#3F3D56"/>
<path d="M570.5 271H552.5V289H570.5V271Z" fill="white"/>
<path d="M599.5 271H581.5V289H599.5V271Z" fill="white"/>
<path d="M628.5 271H610.5V289H628.5V271Z" fill="white"/>
<path d="M571 312H553V330H571V312Z" fill="white"/>
<path d="M600 312H582V330H600V312Z" fill="white"/>
<path d="M629 312H611V330H629V312Z" fill="white"/>
<path d="M571.5 353H553.5V371H571.5V353Z" fill="white"/>
<path d="M600.5 353H582.5V371H600.5V353Z" fill="white"/>
<path d="M629.5 353H611.5V371H629.5V353Z" fill="white"/>
<path d="M572 394H554V412H572V394Z" fill="white"/>
<path d="M601 394H583V412H601V394Z" fill="white"/>
<path d="M601 442H583V476H601V442Z" fill="white"/>
<path d="M630 394H612V412H630V394Z" fill="white"/>
<path d="M656 218H648V238.151H656V218Z" fill="#3F3D56"/>
<path d="M888.244 475.792H0.24408V478.033H888.244V475.792Z" fill="#3F3D56"/>
<path d="M732.66 430.081C747.041 430.081 758.7 418.422 758.7 404.041C758.7 389.659 747.041 378 732.66 378C718.278 378 706.619 389.659 706.619 404.041C706.619 418.422 718.278 430.081 732.66 430.081Z" fill="#F1B5B0"/>
<path opacity="0.2" d="M752.03 386.647C754.459 392.329 754.789 398.69 752.96 404.592C751.131 410.495 747.263 415.554 742.047 418.868C736.831 422.181 730.607 423.531 724.487 422.677C718.367 421.824 712.75 418.822 708.639 414.208C710.123 417.679 712.344 420.787 715.148 423.315C717.951 425.843 721.272 427.731 724.878 428.848C728.484 429.965 732.289 430.286 736.031 429.786C739.774 429.287 743.362 427.98 746.549 425.955C749.736 423.931 752.444 421.239 754.487 418.064C756.53 414.889 757.858 411.308 758.379 407.569C758.901 403.83 758.603 400.022 757.507 396.41C756.41 392.797 754.542 389.466 752.03 386.647V386.647Z" fill="black"/>
<path d="M732.731 404.041H732.803L734.09 477.87H731.372L732.731 404.041Z" fill="#3F3D56"/>
<path d="M737.473 444.255L736.873 443.116L732.568 445.382L733.168 446.521L737.473 444.255Z" fill="#3F3D56"/>
<path d="M809.218 405.199C831.089 405.199 848.818 387.469 848.818 365.599C848.818 343.729 831.089 326 809.218 326C787.348 326 769.619 343.729 769.619 365.599C769.619 387.469 787.348 405.199 809.218 405.199Z" fill="#3F7B62"/>
<path opacity="0.2" d="M838.675 339.15C842.369 347.79 842.87 357.463 840.089 366.438C837.308 375.414 831.425 383.108 823.493 388.147C815.562 393.185 806.097 395.238 796.79 393.94C787.483 392.642 778.941 388.077 772.691 381.061C774.947 386.34 778.324 391.065 782.588 394.909C786.852 398.753 791.901 401.624 797.384 403.324C802.868 405.023 808.655 405.509 814.346 404.75C820.036 403.99 825.493 402.003 830.339 398.925C835.185 395.847 839.304 391.752 842.411 386.924C845.517 382.096 847.537 376.651 848.329 370.965C849.122 365.279 848.67 359.489 847.003 353.995C845.335 348.502 842.494 343.436 838.675 339.15V339.15Z" fill="black"/>
<path d="M809.327 365.599H809.436L811.394 477.87H807.26L809.327 365.599Z" fill="#3F3D56"/>
<path d="M816.538 426.752L815.625 425.02L809.079 428.466L809.992 430.199L816.538 426.752Z" fill="#3F3D56"/>
<path d="M26.6597 429.081C41.0415 429.081 52.7002 417.422 52.7002 403.041C52.7002 388.659 41.0415 377 26.6597 377C12.2779 377 0.61911 388.659 0.61911 403.041C0.61911 417.422 12.2779 429.081 26.6597 429.081Z" fill="#8BC0AA"/>
<path opacity="0.2" d="M46.0303 385.647C48.4592 391.329 48.7887 397.69 46.9599 403.592C45.131 409.495 41.2629 414.554 36.0469 417.868C30.8309 421.181 24.6067 422.531 18.4867 421.677C12.3666 420.824 6.74952 417.822 2.63904 413.208C4.12285 416.679 6.34365 419.787 9.14757 422.315C11.9515 424.843 15.2715 426.731 18.8775 427.848C22.4836 428.965 26.2895 429.286 30.0315 428.786C33.7735 428.287 37.3622 426.98 40.5489 424.955C43.7357 422.931 46.4442 420.239 48.487 417.064C50.5297 413.889 51.8578 410.308 52.3792 406.569C52.9006 402.83 52.6029 399.022 51.5066 395.41C50.4103 391.797 48.5418 388.466 46.0303 385.647H46.0303Z" fill="black"/>
<path d="M26.731 403.041H26.803L28.09 476.87H25.372L26.731 403.041Z" fill="#3F3D56"/>
<path d="M31.4728 443.255L30.8729 442.116L26.5683 444.382L27.1682 445.521L31.4728 443.255Z" fill="#3F3D56"/>
<path d="M606.413 37.3358L615.619 29.973C608.468 29.184 605.529 33.0842 604.327 36.1713C598.74 33.8513 592.657 36.8918 592.657 36.8918L611.076 43.5785C610.147 41.0966 608.53 38.9311 606.413 37.3358V37.3358Z" fill="#3F3D56"/>
<path d="M144.413 74.3358L153.619 66.973C146.468 66.184 143.529 70.0842 142.327 73.1713C136.74 70.8513 130.657 73.8918 130.657 73.8918L149.076 80.5785C148.147 78.0966 146.53 75.9311 144.413 74.3358V74.3358Z" fill="#3F3D56"/>
<path d="M746.413 112.336L755.619 104.973C748.468 104.184 745.529 108.084 744.327 111.171C738.74 108.851 732.657 111.892 732.657 111.892L751.076 118.579C750.147 116.097 748.53 113.931 746.413 112.336V112.336Z" fill="#3F3D56"/>
<path d="M220.413 54.3358L229.619 46.973C222.468 46.184 219.529 50.0842 218.327 53.1713C212.74 50.8513 206.657 53.8918 206.657 53.8918L225.076 60.5785C224.147 58.0966 222.53 55.9311 220.413 54.3358V54.3358Z" fill="#3F3D56"/>
<path d="M237.413 134.336L246.619 126.973C239.468 126.184 236.529 130.084 235.327 133.171C229.74 130.851 223.657 133.892 223.657 133.892L242.076 140.579C241.147 138.097 239.53 135.931 237.413 134.336V134.336Z" fill="#3F3D56"/>
<path d="M595.413 176.336L604.619 168.973C597.468 168.184 594.529 172.084 593.327 175.171C587.74 172.851 581.657 175.892 581.657 175.892L600.076 182.579C599.147 180.097 597.53 177.931 595.413 176.336Z" fill="#3F3D56"/>
<path d="M106 456H44V458H53.669V477H55.669V458H93.331V477H95.331V458H106V456Z" fill="#3F3D56"/>
<path d="M169 464C166.553 464 164.149 464.645 162.031 465.87C159.879 463.924 157.209 462.645 154.345 462.188C151.481 461.73 148.545 462.114 145.895 463.292C143.244 464.471 140.993 466.394 139.414 468.827C137.835 471.26 136.997 474.099 137 477H182.95C182.699 473.471 181.121 470.168 178.533 467.756C175.944 465.343 172.538 464.001 169 464V464Z" fill="#3F3D56"/>
<path d="M406 464C403.553 464 401.149 464.645 399.03 465.87C396.879 463.924 394.209 462.645 391.345 462.188C388.481 461.73 385.545 462.114 382.895 463.292C380.244 464.471 377.993 466.394 376.414 468.827C374.835 471.26 373.997 474.099 374 477H419.95C419.699 473.471 418.121 470.168 415.533 467.756C412.944 465.343 409.538 464.001 406 464V464Z" fill="#3F3D56"/>
<path d="M561 464C558.553 464 556.149 464.645 554.031 465.87C551.879 463.924 549.209 462.645 546.345 462.188C543.481 461.73 540.545 462.114 537.895 463.292C535.244 464.471 532.993 466.394 531.414 468.827C529.835 471.26 528.997 474.099 529 477H574.95C574.699 473.471 573.121 470.168 570.533 467.756C567.944 465.343 564.538 464.001 561 464V464Z" fill="#3F3D56"/>
<path d="M765 464C762.553 464 760.149 464.645 758.031 465.87C755.879 463.924 753.209 462.645 750.345 462.188C747.481 461.73 744.545 462.114 741.895 463.292C739.244 464.471 736.993 466.394 735.414 468.827C733.835 471.26 732.997 474.099 733 477H778.95C778.699 473.471 777.121 470.168 774.533 467.756C771.944 465.343 768.538 464.001 765 464V464Z" fill="#3F3D56"/>
<path d="M863 464C860.553 464 858.149 464.645 856.031 465.87C853.879 463.924 851.209 462.645 848.345 462.188C845.481 461.73 842.545 462.114 839.895 463.292C837.244 464.471 834.993 466.394 833.414 468.827C831.835 471.26 830.997 474.099 831 477H876.95C876.699 473.471 875.121 470.168 872.532 467.756C869.944 465.343 866.538 464.001 863 464V464Z" fill="#3F3D56"/>
<path d="M129 407H113V423H120.417V476.912H122.417V423H129V407Z" fill="#3F3D56"/>
<path d="M106.122 450.016H44.122V452.016H106.122V450.016Z" fill="#3F3D56"/>
<path d="M106.122 445.016H44.122V447.016H106.122V445.016Z" fill="#3F3D56"/>
<path d="M106.122 440.016H44.122V442.016H106.122V440.016Z" fill="#3F3D56"/>
</g>
<defs>
<clipPath id="clip0">
<rect width="888.244" height="478.033" fill="white"/>
</clipPath>
</defs>
</svg>
